<svg width="33" height="32" viewBox="0 0 33 32" fill="none" xmlns="http://www.w3.org/2000/svg">
<path fill-rule="evenodd" clip-rule="evenodd" d="M32.5555 16C32.5555 7.16413 25.3913 0 16.5555 0C7.71968 0 0.555542 7.16413 0.555542 16C0.555542 23.9853 6.4057 30.6049 14.0558 31.8067V20.6261H9.99219V16H14.0558V12.4742C14.0558 8.46456 16.4453 6.24829 20.0993 6.24829C21.8498 6.24829 23.6813 6.56102 23.6813 6.56102V10.4986H21.6631C19.6764 10.4986 19.0553 11.7317 19.0553 12.9984V15.9999H23.4922L22.7835 20.626H19.0552V31.8064C26.7053 30.6071 32.5553 23.9876 32.5553 15.9999L32.5555 16Z" fill="#1977F3"/>
<path fill-rule="evenodd" clip-rule="evenodd" d="M22.7836 20.6258L23.4924 15.9996H19.0554V12.9982C19.0554 11.7337 19.6742 10.4984 21.6632 10.4984H23.6816V6.5608C23.6816 6.5608 21.8501 6.24805 20.0995 6.24805C16.4454 6.24805 14.0559 8.46214 14.0559 12.4739V15.9998H9.99231V20.6259H14.0559V31.8064C14.8704 31.9345 15.7052 31.9998 16.5557 31.9998C17.4062 31.9998 18.241 31.9322 19.0554 31.8064V20.6259H22.7838L22.7836 20.6258Z" fill="#FEFEFE"/>
</svg>
